<?xml version="1.0" encoding="utf-8"?>
<!-- Generator: Adobe Illustrator 16.0.0, SVG Export Plug-In . SVG Version: 6.00 Build 0)  -->
<!DOCTYPE svg PUBLIC "-//W3C//DTD SVG 1.1//EN" "http://www.w3.org/Graphics/SVG/1.1/DTD/svg11.dtd">
<svg version="1.1" id="Ebene_1" xmlns="http://www.w3.org/2000/svg" xmlns:xlink="http://www.w3.org/1999/xlink" x="0px" y="0px"
	 width="574px" height="629.797px" viewBox="62.737 -140.911 574 629.797" enable-background="new 62.737 -140.911 574 629.797"
	 xml:space="preserve">

	 <defs>
	 	<style type="text/css">
	 		path:hover {
	 		fill: green;
	 		pointer-events:all;
	 		}

	 		* {
	 		stroke:black;
	 		stroke-width:1px; 
	 		}

	 		#area-name {
	 			content: "blablabla"
	 		}
	 	</style>


	 </defs>

	<path id="ausland" fill="#666666" d="M571.915,427.92H76.421V-120.51h495.494V427.92z"/>
	<path id="deutschland" fill="#8C8C8C" d="M491.017-45.855c1.125,8.994,10.119,26.419,11.244,32.039c1.688,13.492-16.304,22.486-12.365,33.165
		c2.049,6.159,13.803,8.424,18.721,11.527c11.035,6.961-3.231,16.023,3.196,23.891c1.692,2.81,5.627,3.932,6.749,7.309
		c1.687,2.808-0.562,6.741,0,9.555c0.563,1.686,2.807,1.124,3.371,2.248c2.813,3.937-3.933,13.489-5.617,16.864
		c-3.372,5.06,5.053,7.87,6.746,12.926c1.123,2.813-2.813,6.183-1.129,8.435c2.252,3.371,7.309,2.248,9.562,4.497
		c7.864,7.307,4.491,48.343-2.254,49.467c-7.309,1.684-19.111-29.234-25.292-11.808c-1.127,2.813,8.994,5.062,6.742,6.751
		c-6.742,5.618-16.301,6.179-23.043,10.113c-3.879,1.928,3.015,4.483-4.747,4.752c-3.145,0.109-7.663-1.438-10.43,0.87
		c-2.816,2.252-1.687,6.747-4.5,8.993c-1.125,1.124-2.247-2.808-3.934-2.247c-5.06,1.123-5.623,7.87-8.996,10.117
		c-1.682,1.691-5.06-1.122-6.746,0.562c-1.684,1.129,0,4.5-1.684,6.185c-2.254,2.809-8.433-2.248-10.116-2.248
		c-14.056,2.248-16.303,12.926-20.803,21.92c-1.124,2.248-1.124-5.619-3.37-7.304c-1.689-2.252-5.062-2.814-7.871-3.376
		c-3.838-0.853,3.732,10.995,4.2,11.629c2.851,3.864,6.126,7.497,9.874,10.511c2.382,1.915,7.825,3.026,8.409,6.526
		c1.691,7.875-5.618,5.061-6.742,11.246c-0.562,1.685,11.804,22.482,13.487,24.167c5.289,5.291,10.37,3.763,15.834,7.228
		c6.911,4.384,7.067,13.481,14.591,17.691c9.877,5.526,29.137,12.821,28.599,26.796c-0.115,3.118,0.236,10.839-4.34,11.382
		c-3.534,0.419-12.138-4.842-14.209-0.698c-1.123,5.618,2.248,11.807-3.37,16.303c-5.061,3.932-28.673,9.555-29.233,18.548
		c0,0,13.49,18.55,13.49,19.112c0.564,0.562-7.306,7.309-4.496,9.558c6.185,5.618,12.366-2.812,7.308,15.743
		c0,1.122-1.123,2.807-2.247,2.807c-17.987-5.06-3.937-14.052-12.369-14.614c-4.494,0-8.434,3.933-12.927,3.37
		c-2.247-0.561-1.684-4.494-3.375-5.056c-3.372-1.125-6.742,1.686-9.557,0.562c-1.122-0.562,1.123-3.932,0-3.932
		c-6.745,0.56-0.561,9.547-2.248,10.111c-7.869,2.252-20.796-1.123-28.104,1.691c-2.252,1.123-1.122,5.061-3.376,6.183
		c-2.247,1.685-5.056-1.122-7.308,0.563c-1.775,0.59,0.527,3.403-0.562,4.492c-1.135,1.141-4.843,1.517-6.268,1.886
		c-3.53,0.912-12.09,4.397-15.651,2.611c-1.125-1.126,0-3.933-1.125-5.057c-1.313-0.749-2.625-1.499-3.938-2.249
		c-0.524-1.051,2.773-0.636,2.247-1.684c-2.247-7.315-17.986,1.684-22.481-3.376c0,0,1.123-0.562,1.123-1.125
		c-3.371-2.245,0,7.31-1.123,11.242c0,2.248-10.68,15.178-14.617,11.245c-2.246-2.247,3.937-5.622,2.247-7.87
		c-0.927-0.937-4.791,3.908-6.741,0c-1.127-1.692,2.809-3.937,0-6.184c-2.251-1.684-3.376-4.496-5.622-5.618
		c-1.686-1.13-3.938,1.686-6.185,1.122c-1.123-1.122,0-3.938-1.123-5.06c-2.811-2.254-2.249,7.872-11.243,5.06
		c-6.184-2.252-10.121-8.438-16.301-10.12c-0.562,0-19.116,1.123-19.116,1.123c-2.248-1.123-2.248-5.057-4.495-6.179
		c1.662,3.324-2.435,5.22-3.938,2.246c-1.112-3.336,2.252-9.794-6.431-7.306c-1.322,0.378-11.139,8.752-8.743,9.553
		c3.373,0.562,6.742-0.564,10.119,0c2.246,0.562-3.939,1.123-5.624,2.244c-1.123,0.564,0.561,3.379,0,3.938
		c-10.534,5.483-7.198-4.373-17.027-2.521c-3.911,0.737-25.15,6.99-27.381,2.521c-0.468-0.937,3.105-1.953,2.81-2.252
		c-5.055-3.931-7.308,12.933-7.308-6.74c-0.562-7.869,5.062-15.178,5.624-23.05c0-1.123-2.248-1.123-2.248-2.809
		c-1.339-6.697,5.351-14.451,8.562-19.729c3.669-6.028,0.977-14.715,3.802-21.307c4.5-8.994,15.74-15.74,21.925-26.418
		c2.247-3.939-31.48-7.872-33.728-9.556c-1.685-1.688-0.562-5.061-2.247-6.747c-2.814-2.252-20.801,5.06-21.924,3.376
		c-0.563-1.689,1.685-3.938,0.561-5.065c-16.863-15.175-5.623,7.873-12.364,0.565c-5.624-5.622-8.433-18.554-12.932-21.363
		c-1.687-1.685-5.056,0-6.184-1.685c-6.181-11.241,16.301-15.74,8.431-25.295c-1.123-1.685-14.611-2.809-17.425-14.61
		c-5.057-20.802,20.8-19.679,12.93-32.605c-1.685-2.814-6.747-2.251-7.869-5.623c-0.563-2.252,3.933-4.499,3.37-6.747
		c0,0.646-5.172-1.455-6.04-2.757c-1.445-2.167-7.262-9.045-6.326-11.859c0.563-2.248,4.495-2.248,5.057-4.495
		c1.691-9.56-14.611-12.931-9.555-14.055c1.691-0.561,2.814,1.685,3.937,1.685l10.678-9.553c0.564-2.81-6.745,0.561-4.493-3.938
		c1.685-3.932,5.618-6.742,7.304-10.674c5.061-12.369-7.304-21.363-10.679-27.547c-0.164-0.327,1.002-7.244,1.124-7.305
		c2.813-1.689,6.184,0,9.556-1.128c1.128-0.561-1.125-3.932,0-3.371c3.375,1.124,5.622,5.062,9.555,5.062
		c3.937,0.561,19.115-4.499,20.801-8.438c1.686-3.933-10.679-4.494-5.622-7.865c8.993-6.185,19.678-8.437,17.425-22.486
		c-0.561-7.87-21.357-4.5-16.302-12.927c0.562-1.69,3.375,0,3.375-1.127c0.562-1.685-2.247-3.371-1.684-5.061
		c0-2.911,12.565,0.561,14.05,0.561c4.264,0,1.292-10.935,2.252-13.488c2.927-10.264,10.875-20.255,9.555-31.475
		c1.685-0.567,3.371-1.691,5.055-3.938c2.252-2.252-2.81-1.129-7.869-1.129c-1.636-0.236-4.94-0.443-6.18-1.685
		c-4.5-5.618,7.869-23.043,12.365-25.291c0.822-0.494,20.823,3.87,21.178,0.445c0.191-1.846-15.397-1.087-16.615-2.472
		c1.964,2.233,21.876,0.267,24.671,0.34c0.561,0,2.247,0.562,2.808,1.125c3.371,6.18,5.624,32.037,19.672,26.415
		c3.74-1.402,1.016-20.423,1.066-23.557c0.071-4.419,0.158-9.512,2.276-13.523c3.639-6.886,4.815-0.482,7.905,0.542
		c7.68,5.129,16.348-4.349,23.605-1.123c6.271,2.686,12.722,33.713,22.225,31.188c2.157-0.573,1.946-4.997,1.946-6.454
		c0-4.014-9.47-3.849-11.803-6.185c-6.452-5.803-4.62-18.006-15.176-19.672c-1.687,0-14.618,2.81-13.494-5.057
		c0.562-5.061,8.431-20.801,3.374-26.986c-1.685-1.685-14.053,4.5-15.739-1.685c-0.563-1.124,3.37,0,3.932-1.124
		c1.13-1.124-3.932-3.371-2.808-3.371c5.622-1.69,15.179,3.933,16.863-7.313c0-3.068-7.458-9.276-9.332-11.478
		c-4.818-5.659-6.969-10.505-6.969-18.312c4.115,0.587,8.247,0,12.369,0c7.551,1.163,14.369,5.023,21.92,6.185
		c-0.562,1.686-0.562,2.247,0.562,1.686c2.251-1.686,3.375-4.495,5.623-5.057c1.124,0-0.562,2.81,0,3.933
		c4.488,2.995,11.487,0.481,16.302,3.371c2.261,1.506,2.832,4.259,1.123,5.061c-1.123,0.562-3.37,1.686-2.248,2.248
		c0.563,1.124,3.371-1.124,3.934,0c1.687,2.813,1.123,6.184,0,8.992c-1.124,2.81-8.994,4.501-6.747,7.309
		c2.813,3.938,13.494-6.184,14.054-1.124c0.562,3.374-5.621,9.555-2.246,10.679c3.933,1.687,3.933-7.869,7.869-8.431
		c3.371-0.562,16.303,10.678,19.112,9.555c0.562,0,11.802-12.927,15.739-6.179c7.87,14.615-31.48,29.789-10.117,32.041
		c4.494,0.562,7.87-5.061,12.364-5.061c5.623,0.561-0.562,16.863,11.802,8.431c2.814-1.685,4.499-15.74,9.561-18.549
		c7.303-3.938,15.173-5.623,18.549,2.248c-0.562-1.685-1.123-4.495-0.562-5.061c3.076-3.59,7.665-5.376,10.68-8.995
		c3.519-4.105,3.789-9.949,7.308-14.054c2.158-2.162,15.605,3.796,19.181,3.165c7.835-1.382,3.772,6.532,6.677,10.889
		c2.111,2.814,6.517,1.841,8.875,5.137c2.046,2.858,4.059,8.855,8.551,8.357c3.933,0,8.433-2.81,12.932-1.687
		c1.683,0.562-2.252,3.372-2.252,5.057c0.562,4.5,2.252,8.994,3.935,13.492C473.837-49.71,485.829-44.122,491.017-45.855
		C492.142-36.861,489.333-45.293,491.017-45.855z M439.866-89.138c1.122-5.061-1.123-11.246,0.562-16.302
		c1.685-5.061,18.551,9.556,15.179,4.495c-2.246-3.372-9.557-1.686-11.248-5.619c-0.561-3.375,4.501-6.185,6.746-8.998
		c2.256-1.687-1.683,6.751,0.565,7.312c3.937,1.124,7.869-0.562,11.242,0.561c3.372,1.124-4.497,5.618-3.373,8.99
		c1.122,3.937,6.186,4.499,7.869,8.438c1.125,1.123-6.184,6.741-15.178,8.988C447.737-79.583,443.798-86.329,439.866-89.138
		C440.989-94.199,443.798-86.329,439.866-89.138z"/>
	<path id="bayern" fill="#B2B2B2" d="M448.585,49.103l1.217,0.248c1.468,1.396,2.895,2.837,4.275,4.32c-0.179,1.72-0.434,3.431-0.764,5.128
		c3.411,1.165,7.119,2.031,10.565,3.368c1.859,1.738,3.35,3.828,4.157,6.28c-0.48,0.853-1.351,1.361-2.367,1.433
		c-0.648,0.668-1.257,1.378-1.819,2.122c3.824,4.363,8.738,5.045,11.176,11.06c-1.927,2.626-2.292,6.252-0.166,8.94l0.928-0.287
		c1.566,0.705,2.99,1.885,4.038,3.312l-0.414,2.718l5.078,0.795c3.781,4.382,7.759,5.039,11.991,7.674
		c4.043,2.517,4.967,4.095,7.698,8.802l-0.082,4.595c-3.581,4.005-5.202,9.102-5.489,14.388l-5.609,3.885
		c0.713,6.579,5.417,7.685,10.847,9.358c1.647,6.908,2.078,13.644,6.977,19.267l-0.447,0.515c1.049,0.791,2.286,1.288,3.582,1.436
		l0.168-0.558l0.139-0.128l0.394,0.028c1.113,2.384,1.275,5.236-0.024,7.471c2.498,4.609,7.278,7.362,11.291,10.543
		c0.382,0.87,0.444,1.773,0.165,2.662l1.972,3.624c3.052,1.188,6.345,1.518,9.607,1.753l0.178-0.125
		c-0.089-0.538-0.337-0.989-0.743-1.351l-0.114-0.934c14.347-0.824,15.672,18.054,26.661,22.873l0.096,3.938
		c1.631,1.783,3.693,3.086,6.013,3.806c9.118-5.274,15.59,11.139,16.916,17.372c2.615,1.772,5.318,4.404,8.328,4.707
		c-0.183-1.215-0.274-2.403-0.279-3.632c11.417-4.871,11.641,16.057,20.174,10.598l0.797,0.021c3.238,4.773,7.022,9.41,9.323,14.735
		c-0.543,2.743-1.411,5.473-2.851,7.869c6.653,9.963,1.729,19.153-4.757,27.382c-6.883-1.591-13.032-7.052-19.746-9.599
		c-0.419,3.391-3.149,5.438-6.418,6.035c3.873,4.131,0.186,8.498-0.378,13.011c-0.741,5.937,0.394,9.236-4.706,14.491
		c-2.722,2.805-5.157,4.733-8.421,6.904c-2.88,1.917-6.521-0.088-9.41,1.541c-4.55,2.564-9.445,1.911-13.587,5.657
		c-4.119,3.726-3.535,5.812-9.355,6.79c-4.31,0.724-6.562,5.935-9.465,9.424c-3.497,4.202-5.54,4.274-2.363,9.709
		c1.575,2.694,5.759,3.723,7.488,6.409c1.453,2.258,1.851,5.022,2.871,7.425c5.094-0.051,12.473,10.752,12.316,15.382
		c-0.179,5.278-12.539,14.209-6.49,18.451c2.739,0.844,5.342,0.66,7.306-1.102l-0.099-0.147l0.305-0.585
		c0.265-0.134,0.55-0.18,0.855-0.139c17.671,5.774-3.757,21.566,3.689,26.756c0.232,1.401,0.333,2.869,0.293,4.304
		c-1.209,1.415-2.526,2.797-3.861,4.053c-6.684-2.298-18.996-7.726-21.139-14.82c0.347-1.692,1.148-3.167,2.384-4.342l-3.532-7.341
		c-6.369-1.907-8.923-1.927-15.308-0.474c-0.772,1.087-1.404,2.273-1.88,3.525c-2.506,1.278-4.862,2.791-7.578,3.315
		c-2.2-1.979-4.186-4.262-5.725-6.783c-3.359-0.366-6.487-0.469-9.556-1.851l0.207-0.601l-6.312,2.383l-1.522-4.691
		c0.43-0.726,0.784-1.488,1.063-2.285c-0.131-0.532-0.392-1-0.774-1.397c-2.279,1.622-4.287,3.778-6.337,5.782
		c-0.565,2.781,3.654,10.583,2.316,12.413c-1.956,2.677-11.072,0.443-13.399-0.908c-5.688,2.455-11.841-0.146-17.834,2.79
		c-0.466,0.975-1.165,2.067-1.829,2.858c-6.433-1.187-12.938-0.341-19.395-1.091c-3.553,1.657-4.636,5.588-3.903,9.18
		c-2.973,3.273-8.856,3.477-12.93,2.287l-0.627-0.778c-4.515,4.294-12.508,18.06-19.476,16.771l-0.221-0.268
		c0.5-1.619,1.468-3.085,2.77-4.18c-0.043-0.306-0.189-0.521-0.441-0.645c-9.189-1.476-15.676,8.54-25.487,4.765
		c-0.242-0.801-0.202-1.642,0.142-2.364l0.771-0.143l0.376-0.333l-0.139-1.229c-1.623-1.946-3.333-3.813-5.132-5.6
		c-1.773-0.259-3.568-0.689-5.239-1.262c-0.209-0.74-0.244-1.551-0.11-2.325c0.993-0.919,2.061-1.775,3.176-2.548l-1.79-2.606
		c-2.796,0.154-5.516,1.091-8.018,2.341c-3.395-0.573-6.355-1.915-9.541-3.206c-0.28-0.459-0.375-1.001-0.239-1.498l-0.112-0.354
		c-2.761-0.455-5.504-0.966-8.288-1.236c-1.176,1.335-1.999,2.889-2.46,4.623c-3.916,0.158-7.846-0.229-10.918-2.881
		c1.199-1.163,1.774-2.606,1.638-4.254c-1.133,0.093-2.296,0.265-3.409,0.503l-0.512,0.864c0.07,4.16-0.633,8.74,1.247,12.52
		l0.266,0.086l0.548-0.212c0.626,0.213,1.124,0.594,1.494,1.142c0.189,2.051,0.371,4.102,0.543,6.153
		c-7.716,10.36-13.537,20.63-27.43,21.938c0.05-5.496,4.242-10.22,5.669-15.112l-0.64-0.857c-1.437-0.228-2.907-0.408-4.365-0.536
		l-1.136,0.881c-0.054,0.649-0.049,1.305,0.014,1.951c-1.972,0.915-4.223,1.708-6.396,2.256l-2.065-6.63l0.723-1.421
		c0.912-0.308,1.541-0.983,1.861-1.922c-1.698-3.168-3.985-6.528-7.571-7.549c-3.998,0.995-5.965-5.042-5.065-8.384
		c-4.285,3.568-9.529,2.689-13.95-0.182l-0.056-0.28c0.027-0.374,0.215-0.618,0.55-0.691c0.721-1.302,0.805-2.91,0.25-4.334
		c-1.228-1.117-2.655-1.496-4.269-1.127c-2.075,1.893-3.519,4.292-5.207,6.576c-3.561-0.975-7.214-2.16-10.384-4.063l-0.419-1.115
		c1.663-1.319,3.375-2.573,5.134-3.76l3.105,0.246c1.007,1.562,3.137,1.733,5.202,1.018c2.462-2.502,4.954-4.993,7.363-7.537
		c4.5-0.302,8.983-0.39,13.491-0.456c1.324-3.142,4.395-3.946,7.481-2.483c0.821,1.735,1.389,3.679,1.655,5.607l-0.088-0.403
		c0.376-1.431,1.239-2.656,2.449-3.47c0.382,0.11,0.782,0.178,1.176,0.197l1.455-1.353c2.836-5.434-3.32-10.872-2.522-16.84
		l1.333-0.03l1.747-1.572l-0.361-1.032c-3.914-3.361-3.298-11.193-2-15.811c-2.764-1.863-3.159-4.592,0.476-5.264
		c-0.241-2.045,0.312-3.986,1.664-5.448c0.874-4.082,0.528-8.342,0.247-12.479c-5.746-4.395-5.548-17.213-6.409-23.454
		c-3.056-3.14-5.896-7.409-6.632-11.785c1.347-3.63,5.111-7.892,3.539-11.717c2.358-0.171,4.574-1.1,6.45-2.646
		c1.071,0.756,1.993,1.675,2.757,2.746c4.018-0.563,6.313-3.537,9.278-6.144c-0.149-0.486-0.342-0.955-0.577-1.406
		c0.899-0.634,1.945-1.09,3.007-1.297c1.455,0.82,2.956,0.671,4.268-0.391c0.641-7.54-0.994-13.085-5.26-19.108
		c0-1.835,0.432-3.625,1.263-5.282c2.051,0.641,4.099,1.291,6.143,1.951c2.766-0.727,5.57-1.321,8.42-1.477
		c0.438,0.185,0.688,0.52,0.714,0.976c-0.416,1.32-1.113,2.547-2.013,3.509l0.067,0.322l0.043,0.028
		c1.445-0.051,2.87-0.385,4.203-0.976c0.827-0.869,1.621-1.773,2.374-2.705l-0.416-0.836l-0.296,0.018l-0.828-0.812
		c-0.502-1.457-0.833-2.98-0.975-4.508c-1.12-0.429-2.473-0.83-3.614-1.072l-0.348-4.32l0.909-0.388
		c5.331-9.948,0.844-18.535-1.86-27.373c-4.46-3.25-8.356-6.286-13.56-8.204c-0.167-0.752-0.232-1.515-0.194-2.283
		c0.277,0.027,0.528-0.06,0.754-0.263c-0.976-4.904-1.464-9.584-4.48-13.735c-8.363-3.102-10.232-8.252-6.533-16.758
		c-2.387-4.18-4.733-8.319-2.677-13.136c1.328,0.158,2.695-0.007,3.91-0.5c0.211-0.27,0.363-0.567,0.457-0.892
		c-1.426-3.436-3.027-6.75-3.877-10.404l-0.189-0.076l-1.329-1.737c-0.222-0.881,0.058-1.646,0.793-2.187
		c-0.368-2.005-1.16-3.912-2.32-5.6c-1.72-0.506-3.086,0.226-4.003,1.868c0.455,0.768,1.153,1.263,2.017,1.404
		c-2.166,4.956-8.742,7.335-12.93,3.5l0.181-0.894c1.908-3.262,1.194-8.185-0.305-11.657c-0.44-0.11-0.908-0.092-1.346,0.043
		c-4.409-5.64-2.629-14.892-8.85-19.049c-4.273,1.47-8.224,3.505-12.366,5.058c-1.094-0.36-1.975-1.033-2.563-1.995l0.5-1.823
		c0.255-0.213,0.545-0.372,0.87-0.474c0.407-3.193,0.885-6.387,0.726-9.582c-2.938,1.446-5.017,4.101-7.415,6.311
		c-5.563-1.206-2.97-5.477-7.289-5.879c-0.634,0.682-1.192,1.461-1.639,2.287c-3.9-1.29-8.813-0.554-12.856,0.238
		c-0.135,3.176,1.677,6.077,3.61,8.634c0.729,0.155,1.48,0.123,2.193-0.095c0.131-0.949,0.085-1.926-0.14-2.843l0.466-0.753
		l1.198,0.305c2.093,2.635,2.259,5.839,0.938,8.901l0.694,0.659c-0.243,0.688-0.64,1.297-1.17,1.809
		c-3.083,0.1-5.78-0.911-8.943-1.196c-0.913,1.259-1.772,2.556-2.577,3.886c0.35,0.404,0.644,0.877,0.843,1.364
		c-3.022,5.812-10.255,6.781-16.065,4.886l-1.177-2.157c0.566-4.837,0.73-9.622,2.865-14.088l0.656-0.317l2.138-5.684l-1.555-6.994
		c-0.623-0.339-1.363-0.52-2.084-0.516c-2.993-2.995-6.475-4.921-6.404-9.359c0.479-0.07,1.001-0.045,1.484,0.067
		c-3.176-4.671-1.032-11.721-2.911-16.938l2.08-1.168c0.646-3.031,0.095-6.169-3.094-6.084l-1.707-1.476
		c4.482-14.212,21.899-12.357,34.214-9.765c0.766,2.24,1.912,4.603,3.299,6.422c2.947-0.29,5.843-0.881,8.76-1.407
		c1.504-6.294-3.24-12.278,0.786-18.78c2.679,1.171,5.675,1.744,8.574,1.353l0.17-0.141c0.584-2.23,1.553-4.384,2.839-6.307
		c5.441-0.645,10.925-6.017,6.845-11.412c1.38-1.675,2.187-3.911,2.312-6.182l4.69-1.368c7.101,6.514,19.948-6.688,19.628-14.051
		c1.73-1.043,3.348-2.582,4.547-4.29c3.149-0.336,6.312-0.744,9.46-0.866c1.473,1.903,2.919,3.826,4.339,5.769
		c7.095,2.436,10.909,6.679,11.296,14.595l0.704,0.991c0.887,0.099,1.774,0.196,2.661,0.292c0.809-0.355,1.606-0.737,2.39-1.145
		c0.968,6.285,7.52,8.132,13.025,9.086c-0.466,4.998-1.308,9.6,0.883,14.318c3.325,0.813,6.675,2.595,9.915,2.953l0.592-1.005
		l-0.182-2.31l-0.192-0.084c-0.076-0.821-0.061-1.721,0.042-2.521l0.389-0.292c3.954,0.869,10.303,4.197,10.281-1.896
		c-4.034-2.101-7.958-4.604-11.793-7.455c-0.396-1.886-0.424-3.876-0.068-5.752c7.114-2.905,11.411-4.218,19.097-4.039
		c1.201,1.868,2.529,3.647,3.995,5.349c2.844,1.102,5.941,1.147,8.584-0.358l0.502-1.517c0.699-0.34,1.529-0.46,2.328-0.347
		c1.777,1.25,3.087,2.896,3.926,4.916l-0.056,0.806c-0.908,0.324-1.707,0.935-2.276,1.73c0.155,2.333,1.66,4.403,3.856,5.694
		l1.08-0.038c0.475-0.872,0.935-1.779,1.359-2.679l4.104-0.667c2.281-7.83,2.81-12.113,0.667-20.202
		c-0.551-0.174-1.053-0.456-1.493-0.835c-0.367-1.433-0.267-2.979,0.334-4.236l0.564-0.178l0.598,0.178l0.128,0.212
		c1.832-0.761,3.476-1.857,4.897-3.258c1.908-3.993,7.861-3.817,10.12,0.015c-0.056,0.419-0.219,0.861-0.45,1.226l-0.584-0.015
		c-1.414,3.033-1.646,7.007,2.139,8.234l2.311-0.28c0.439,3.009,1.978,5.695,4.579,7.288c1.126-0.161,2.213-0.616,3.064-1.311
		c-0.001-1.5,0.837-2.201,2.385-2.128C425.569,58.812,442.312,52.172,448.585,49.103z"/>
<g id="muenchen">
	<path id="feldmoching-hasenbergl" fill="#D8D8D8" d="M424.993,197.742c-0.258,3.297,0.243,6.473,0.6,9.764h-0.6l1.195,8.368
		c-5.428,0.078-12.243-1.167-17.136,1.596v-0.4l-1.594-0.396l-0.797,0.396c-13.429-2.441-30.524-1.522-42.244-10.162
		c-6.291,0.566-14.435-3.024-20.724-4.385c-2.063-2.073-4.684-3.549-7.372-4.782l0.397-2.391l1.596-1.594l-0.2-7.373l3.987-1.592
		l-0.6-4.782l-9.962-11.757l7.972-2.989v-0.199l1.395-0.398l-0.2-3.787l3.787,1.196c-0.296-3.335-0.583-7.192-0.199-10.56
		c0.477-4.186,3.339-8.304,1.595-12.554l1.792-0.199c-0.006-1.682-0.269-3.236-0.796-4.783c0.359-0.394,0.558-0.858,0.597-1.394
		c-0.994-1.834-1.188-3.764-0.597-5.779l9.961-2.988v-1.196c10.909,0.58,17.896,8.584,27.697,11.357l4.783,14.745l1.194,0.798h2.79
		v1.394c3.581,0.952,7.172,1.868,10.761,2.791v0.397l3.587,0.797l0.199,0.997c2-0.138,3.829,0.388,5.382,1.595l1.591,4.583
		l9.367-1.594l-0.199,1.594h0.397l0.598,1.793h-0.796l1.595,3.985c-1.06-0.11-2.172-0.043-3.189,0.199v0.2l0.998,0.399
		C420.177,175.675,423.4,190.188,424.993,197.742"/>
	<path id="schwabing-freimann" fill="#D8D8D8" d="M440.536,262.103l1.196-1.992c-0.827-2.023-1.159-4.171-0.997-6.375
		c1.035-0.6,2.18-0.865,3.389-0.799c2.042-4.633-0.176-11.159-0.798-15.939l3.586-0.2c0.677-8.357-0.399-17.267-0.399-25.706h4.583
		c0.447-1.974,0.444-3.983,0-5.978l0.798,0.2l0.598-2.791h-0.398l0.598-3.985h-1.194v0.399H450.1l-0.197-0.399l-3.189,0.2
		c0.962-6.646,1.821-13.314,2.991-19.928c5.254,0,10.488,0.054,15.739,0.201l-0.398-2.79l0.599-0.2v-2.79l3.387-0.996v-1.196
		l1.595-0.2l-0.2-1.395c1.83,0.571,3.769,0.654,5.578,0.2l-6.176-12.155l1.396-0.797l-0.2-1.794l1.992-0.199l0.2,1.594l-1.396,0.598
		l0.798,2.391c1.66,0,3.319,0,4.979,0c0.404-1.174,0.738-2.372,0.999-3.586c2.996,0.598,6.128,0.735,9.164,0.397l0.198-1.792
		l1.796,0.198l0.2-0.996c5.059,1.975,10.098,3.499,15.143,5.379l0.397,0.6l-0.995,0.995c-0.089,0.518,0.044,0.983,0.399,1.396
		l-0.399,0.797c0.274,0.71,0.474,1.441,0.598,2.191c1.509,0.895,3.037,1.759,4.583,2.59l-0.201,0.598l7.772,4.583v4.782l0.8,0.397
		c-2.522,8.435-11.97,10.713-13.152,19.13l-0.601,0.399c0.881,9.669-5.996,19.802-9.562,28.494l2.191,1.792
		c-1.104,1.902-2.167,3.83-3.187,5.779l-2.194-2.392c-10.618,16.497-20.795,33.193-30.884,50.014
		c-4.363-2.995-3.314-8.259-6.973-11.756h-2.395c0.348,0.858,0.681,1.722,0.999,2.592c-0.097,0.914-0.364,1.778-0.798,2.59
		c-0.973,0.639-2.076,1.121-3.19,1.395l-0.993,0.598l-0.4,0.996l-2.988-0.596l0.2-3.787l-3.987-0.796
		C440.507,268.901,440.638,265.488,440.536,262.103"/>
	<path id="milbertshofen-amhart" fill="#D8D8D8" d="M445.318,236c-6.552,0.633-10.882-1.975-17.336,0.997l-0.2,0.596
		c-3.149,1.021-6.479,1.184-9.762,1.595l1.197,1.993l0.994,0.398c0.232,3.105,0.685,6.191,1.594,9.166l-0.799-0.597
		c-1.599-0.087-3.203-0.021-4.781,0.2l-0.198-0.998l-0.598-0.598l-2.987,0.398l-0.599-3.188l-0.997,0.996l-0.997-0.199
		c-4.439,1.812-8.73,4.096-13.548,4.583c1.662-11.659,1.615-24.069,1.594-35.867l8.768,1.594l0.797-0.396l1.594,0.396v0.4
		c4.893-2.763,11.708-1.518,17.136-1.596l-1.195-8.368h0.6c-1.094-10.093-6.418-29.775-1.992-38.855l-0.998-0.399v-0.2
		c1.018-0.242,2.13-0.309,3.189-0.199l-1.595-3.985h0.796l-0.598-1.793h-0.397l0.199-1.594l0.796-0.199
		c0.758-1.327,1.356-2.724,1.795-4.185c6.312,2.235,11.004-0.187,16.936-2.39c1.172,3.238,2.51,6.351,5.579,8.17
		c0.305,12.839-0.752,24.167-2.59,36.863l3.189-0.2l0.197,0.399h1.396v-0.399h1.194l-0.598,3.985h0.398l-0.598,2.791l-0.798-0.2
		c0.444,1.994,0.447,4.003,0,5.978h-4.583c0,8.18-0.046,16.352,0.599,24.51l-1.992-0.398L445.318,236"/>
	<path id="allach-untermenzing" fill="#D8D8D8" d="M293.882,239.587c-2.224-2.088-4.366-4.187-5.981-6.774
		c-0.157-2.281,0.243-4.554,1.196-6.576c-2.065-1.251-4.124-2.513-6.177-3.785c-4.454-10.78,1.602-20.283-0.598-30.886
		c9.643-2.009,19.271-4.068,28.893-6.178l1.595-4.98l1.793-1.197c0.024-0.754,0.233-1.511,0.598-2.189
		c4.865-3.325,10.048-8.899,16.339-8.769l9.962,11.757l0.6,4.782l-3.987,1.592l0.2,7.373l-1.596,1.594l-0.397,2.391
		c-4.985-2.065-10.251-3.322-15.144-5.578l0.199,0.199l-0.598,0.797l1.794,1.595l0.399-0.399l6.177,2.591
		c4.16,7.341,11.43,9.653,18.53,13.151c0.431,3.663,0.958,7.261,0.798,10.958l0.199,0.201c-0.956,2.426-1.47,4.984-1.395,7.571
		h-0.599v1.394l-1.793,0.2c0,1.129,0,2.259,0,3.388h-0.398l-0.798,6.375l0.798,0.2l-0.399,3.585l-0.796,0.201l-0.199-0.599
		l-4.782,0.397c-0.296-0.22-0.629-0.286-0.997-0.197l-0.199,1.395l-0.597,0.398l-3.188-2.591c-0.266,0-0.532,0-0.798,0l-0.201,0.199
		c-0.191-0.235-0.257-0.5-0.198-0.795l-0.797-0.599l-1.196,0.995l-0.995-2.193l-0.201,0.201v-0.399l0.399-0.598
		c-0.98-0.618-2.062-1.09-3.188-1.394c-2.993,0.737-5.91,1.621-8.967,1.992l-0.199,0.599l-0.799-0.401l-2.987,0.6l-0.2,1.197
		l-1.593-0.2l-0.2-0.399l-0.397-0.201l-0.2-0.398h-0.997v-0.997h-0.398l-0.2-0.597l-2.391,0.797l0.199,0.599l-1.594,0.597v0.6
		l-2.59,0.795l0.398,0.798l-0.996,0.398l0.199,0.198l-1.396,0.201l-0.598-2.391h-0.398c-0.169-0.937-0.369-1.868-0.597-2.791
		C297.431,239.603,295.722,239.665,293.882,239.587"/>
	<path id="aubing-lochhausen-langwied" fill="#D8D8D8" d="M303.445,276.053l-0.199,0.797
		c-10.879,3.098-11.946,15.077-16.139,24.109l0.199,1.195l-1.195-1.394c-1.837,0.089-3.639-0.179-5.381-0.797l-2.59,1.394
		l-0.201-0.597c-2.657,1.304-3.296,3.316-4.184,5.977c-1.214,3.641-8.831,7.075-11.756,9.166c-1.527,0.635-3.098,1.387-4.582,2.191
		l-0.4-0.398l-4.583,1.196l-0.397,0.799l-9.765-0.999l-1.196-4.981l-3.785,0.998c-1.746-3.688-0.074-7.764-1.196-11.758l3.985-2.19
		l-2.393-7.373l1.396-0.998l-0.797-2.788l0.199-0.4l-0.798-2.789l0.798-0.598l-1.395-2.789l-2.191,0.797l-1.994-3.587l-1.394,0.598
		v-0.995h-0.598l-0.598-4.983c-1.114-0.38-2.244-0.712-3.387-0.998v-0.596l-5.58-0.599l-0.599-1.992h1.197l-0.2-0.796
		c-1.703-0.028-3.27-0.56-4.584-1.594l1.197-2.192c-3.875-0.088-7.697,0.46-11.159-1.395l1.395-6.377h0.598
		c4.087-2.382,6.15-10.064,6.377-14.545h0.797c0.453-1.918,0.455-3.869,0-5.779l1.993-2.79c1.426,0.068,2.831-0.271,3.985-0.998
		c2.546,0.146,5.025-0.109,7.372-0.996l1.395,2.191l1.394,0.201c3.299-3.284,7.309-6.136,8.769-10.76l-1.395-1.595l0.797-0.796
		c0.231-1.914,0.297-3.849,0.198-5.778l-1.594-0.799l-0.399-0.996l-1.792-0.399c-0.023-5.102,1.652-10.64,2.592-15.741l10.757-0.598
		c0.4-0.414,0.872-0.75,1.396-0.997l0.598,0.598c5.23-1.082,12-3.563,17.137-2.191l0.796-1.195l6.177-1.396l0.799,0.398l4.98-1.793
		c2.2,10.603-3.856,20.106,0.598,30.886c2.053,1.272,4.112,2.534,6.177,3.785c-0.953,2.022-1.354,4.295-1.196,6.576
		c1.615,2.587,3.757,4.686,5.981,6.774c-1.566,0.755-3.235,1.085-4.983,0.995l0.598,1.597l1.992,1.195l-1.394,1.793l1.594,2.79
		l-7.571,9.167l0.797,0.797l-0.997,0.996c6.133,5.112,12.45,12.81,19.527,16.338V276.053"/>
	<path id="moosach" fill="#D8D8D8" d="M345.889,251.742c-2.051-3.421-2.056-7.466-1.396-11.358l-0.798-0.2l0.798-6.375h0.398
		c0-1.129,0-2.259,0-3.388l1.793-0.2v-1.394h0.599c-0.075-2.587,0.438-5.146,1.395-7.571l-0.199-0.201
		c0.16-3.697-0.367-7.295-0.798-10.958c-7.1-3.498-14.37-5.81-18.53-13.151l-6.177-2.591l-0.399,0.399l-1.794-1.595l0.598-0.797
		l-0.199-0.199c7.414,3.419,16.532,4.349,22.515,10.36c6.29,1.361,14.434,4.951,20.724,4.385
		c7.527,5.549,24.262,10.088,33.476,8.568c0.021,11.798,0.068,24.208-1.594,35.867c-1.314,0.231-2.577,0.63-3.787,1.195v-1.195
		l-2.191,0.597l-0.398-2.391c-5.854,0.144-12.123,0.062-17.335,2.989l-5.38-4.583c-0.263,1.649-0.731,3.257-1.395,4.782
		c-3.894,0-7.773,0.299-11.558-0.798l-0.398,1.795l-1.196-0.399l-0.398,0.199l-0.398,1.594h0.598l-1.196,0.399
		c-1.447-1.197-2.996-1.331-4.383-0.199l-0.201-3.188l-0.995-0.2L345.889,251.742"/>
	<path id="bogenhausen" fill="#D8D8D8" d="M470.025,297.97l-0.396,0.797l-1.396,0.599l-0.199,0.994h-0.597l-0.599-0.795
		l-0.598,0.2l-0.797-1.199l0.399-1.99c-2.108-0.859-4.226-1.653-6.377-2.392l-0.396,1.195c-0.312,0.181-0.646,0.313-0.997,0.399
		l-0.4-0.399c-0.027-0.563,0.11-1.102,0.4-1.595l-1.396-0.396c7.932-22.325,21.921-42.252,34.869-62.37l2.194,2.392
		c-0.24,0.973-0.311,2.15-0.198,3.188h2.587V235.8l0.997,0.2l0.197-0.2l5.381,1.993c-0.003,0.887-0.268,1.686-0.796,2.391
		c1.451,1.178,3.29,2.011,5.183,2.392l0.396-0.598c2.561,0.306,5.067,0.174,7.574-0.399v-0.597h2.587v-0.997
		c5.238-0.738,10.494-1.348,15.744-1.993v-0.996l-0.398-0.6h-0.797l-0.4-0.397H531l-2.192-3.188l-0.197-3.388l0.795-0.398l0.6-1.396
		c8.614,0.938,17.912,0.874,26.103,3.985l2.391-2.589l0.2-1.595l2.591,0.199l4.381,4.583l-5.18,2.59l2.193,1.993v-0.199l0.597,0.597
		l-0.199,0.398l2.791,3.787l-3.188,5.977c-2.401-1.13-4.94-1.734-7.574-1.793c3.322,6.971-8.211,19.016-12.551,23.911
		c-2.111-2.209-4.941-3.782-7.973-4.185c-0.729,7.363-1.037,13.775-2.59,21.122l0.597,1.396c-0.291,1.484-0.625,2.957-0.993,4.384
		l2.788,0.596c-3.18,5.335-9.636,9.004-14.346,12.953l-1.396-3.389c-5.458-0.138-10.878-0.916-16.34-0.797l-1.991,1.596h-1.993
		c-4.472-3.201-11.43-1.122-16.14,0.796l-0.2-2.392l1.992-0.396l0.199-0.8C479.513,299.353,474.77,298.594,470.025,297.97"/>
	<path id="schwabingwest" fill="#D8D8D8" d="M412.639,261.505c-0.189-6.534,0.025-12.703,8.367-11.357l0.799,0.597
		c-0.909-2.975-1.361-6.061-1.594-9.166l-0.994-0.398l-1.197-1.993c3.283-0.411,6.612-0.574,9.762-1.595l0.2-0.596
		c6.454-2.972,10.784-0.364,17.336-0.997l-0.198-0.797l1.992,0.398l-0.199,1.195l-3.586,0.2c0.622,4.78,2.84,11.306,0.798,15.939
		c-1.209-0.066-2.354,0.199-3.389,0.799c-0.162,2.204,0.17,4.352,0.997,6.375l-1.196,1.992c0.102,3.385-0.029,6.798-0.399,10.164
		l-4.581,0.199c-4.825-4.088-11.966-3.759-17.935-4.583c-0.563,1.063-1.228,2.06-1.992,2.99c-2.117-2.911-4.455-5.606-5.78-8.967
		C410.719,261.397,411.686,261.252,412.639,261.505"/>
	<path id="pasing-obermenzing" fill="#D8D8D8" d="M344.294,289.202l0.199,0.201c-1.647,3.571,0.053,7.068-1.395,10.759h-0.2
		v0.398h-0.397v0.798h-0.2c-0.199,1.33-0.546,2.723-0.997,3.984l0.399,0.2c0,2.125,0,4.25,0,6.375
		c-3.093-0.544-6.36-0.011-9.166,1.397l-0.797-1.994l-2.791,0.796v0.399l-0.795,0.199l-0.2-0.199l-0.796,0.799l-0.399-0.2
		l-3.785,0.397v0.398h-1.196v0.598h-0.199l-0.201-0.398c-1.185,0.716-2.449,0.92-3.785,0.6c-0.304-0.94-0.637-1.871-0.998-2.792
		l-2.19-0.198l0.198-0.398l-2.789-0.599l0.798-2.192l-1.793-0.597l-0.2,0.4l-3.986-0.598l0.199-0.8h-3.786v0.8l-1.394-0.2
		l-0.997,1.792v-0.199l-0.797,0.996c-0.38-0.778-0.704-1.556-0.997-2.389l0.2-0.2c-0.29-0.493-0.427-1.031-0.399-1.595
		c-1.68-0.693-3.484-0.852-5.18-0.398c-1.112-0.858-2.376-1.323-3.786-1.396l0.597-0.995l-2.393-1.992l-0.596,0.995l-0.199-1.195
		c4.193-9.032,5.26-21.011,16.139-24.109c0.197-0.517,0.263-1.049,0.199-1.597c-7.077-3.528-13.394-11.226-19.527-16.338
		l0.997-0.996l-0.797-0.797l7.571-9.167l-1.594-2.79l1.394-1.793l-1.992-1.195l-0.598-1.597c3.567-0.302,6.808-1.381,10.362-1.194
		c0.229,0.923,0.428,1.854,0.597,2.791h0.398l0.598,2.391l1.396-0.201l-0.199-0.198l0.996-0.398l-0.398-0.798l2.59-0.795v-0.6
		l1.594-0.597l-0.199-0.599l2.391-0.797l0.2,0.597h0.398v0.997h0.997l0.2,0.398l0.397,0.201l0.2,0.399l1.593,0.2l0.2-1.197
		l2.987-0.6l0.799,0.401l0.199-0.599c3.057-0.371,5.974-1.255,8.967-1.992c1.125,0.303,2.208,0.776,3.188,1.394l-0.399,0.598v0.399
		l0.201-0.201l0.995,2.193l1.196-0.995l0.797,0.599c-0.059,0.294,0.007,0.56,0.198,0.795l0.201-0.199c0.266,0,0.532,0,0.798,0
		l3.188,2.591l0.597-0.398l0.199-1.395c0.368-0.088,0.701-0.022,0.997,0.197l4.782-0.397l0.199,0.599l0.796-0.201
		c-0.226,2.764,0.398,5.443,1.795,7.773l-0.2,0.198l0.995,0.2c0.114,1.325,0.181,2.656,0.201,3.985l-2.392,2.191
		c-1.841,0.587-3.73,0.663-5.581,0.2c-6.334,6.415-2.423,16.562,2.59,22.515v0.2c1.297,0.975,2.252,2.331,2.591,3.786l-0.399,0.597
		c0.083,0.489,0.018,0.954-0.197,1.395l0.398,0.4C343.956,288.022,344.09,288.623,344.294,289.202"/>
	<path id="neuhausen-nymphenburg" fill="#D8D8D8" d="M407.858,278.443l-0.398,0.597c-0.674-0.07-1.374-0.283-1.992-0.597
		c-0.987,1.055-1.459,2.335-1.396,3.785c-2.668,3.167-6.376,4.842-7.771,8.967c-12.46-0.965-24.546-3.693-37.062-4.186v-0.397
		l-2.393-0.4l-0.198,0.4c-4.163-0.854-8.307-1.892-12.554-2.191c-0.661-1.136-1.581-2.263-2.591-3.189v-0.2
		c-5.013-5.953-8.924-16.101-2.59-22.515c1.851,0.462,3.74,0.387,5.581-0.2l2.392-2.191c0-0.266,0-0.531,0-0.797
		c1.387-1.132,2.937-0.998,4.383,0.199l1.196-0.399h-0.598l0.398-1.594l0.398-0.199l1.196,0.399l0.398-1.795
		c3.785,1.097,7.664,0.798,11.558,0.798c0.664-1.525,1.131-3.133,1.395-4.782l5.38,4.583c5.212-2.927,11.482-2.845,17.335-2.989
		l0.398,2.391l2.191-0.597v1.195c5.554-2.357,11.625-3.447,17.335-5.778l0.997,0.199l0.997-0.996l0.599,3.188l2.987-0.398
		l0.598,0.598l0.198,0.998c-4.594,1.804-3.707,6.985-3.586,11.157c-0.953-0.253-1.92-0.107-2.79,0.4
		c1.325,3.361,3.663,6.057,5.78,8.967C412.965,273.311,410.23,275.725,407.858,278.443"/>
	<path id="trudering-riem" fill="#D8D8D8" d="M563.679,329.253l17.534,5.777l-1.595,1.995c1.929,1.851,3.696,3.869,5.979,5.181
		l-2.192,10.36c-6.826,7.213-16.978,10.707-25.306,15.543l0.201,1.594l-1.796,0.599c-2.105-2.804-4.416-5.753-7.372-7.572
		l-0.199,0.597l-3.189-1.395l-0.2,0.798l-0.396-0.398l0.2-0.6l-5.381-1.989l-0.598,0.595l-0.201-0.199l0.201-0.596
		c-2.391-0.805-4.718-1.516-7.173-2.191c0.249-1.657,0.945-3.235,1.99-4.583c-2.466-1.82-4.768-3.861-6.773-6.177l0.199-1.197
		c-2.109-1.003-4.103-2.198-5.979-3.587h-3.187v-0.598l-3.189-0.199l-0.599-0.599l0.2-0.2l-2.192-1.99l0.399-0.997l-3.387-1.394
		l2.191-0.399l3.189-6.576l0.596,0.398l2.193-4.184l-0.202-0.197c1.911-3.293,3.757-6.623,5.58-9.965
		c-1.604-2.848-2.23-5.974-3.186-9.166c4.71-3.949,11.166-7.618,14.346-12.953l-2.788-0.596c0.368-1.428,0.702-2.9,0.993-4.384
		l-0.597-1.396c1.553-7.346,1.86-13.759,2.59-21.122c5.574,0.74,9.9,5.855,13.949,9.366l-1.592,13.945
		c11.309-0.901,22.535-3.724,33.673-5.777c1.322,1.365,2.653,2.978,3.787,4.584l-2.393,1.193l1.792,2.192l-2.39,2.193
		c2.688,2.688,4.186,5.099,7.771,6.377l3.587-1.994l2.589,3.188l-3.187,2.592l0.598,2.19l-5.58,2.193l-0.996-1.794l-2.192,0.997
		l2.192,3.188l-2.393,1.792l1.397,1.596l0.995-0.799l1.193,1.195l-0.197,0.199l0.796,0.799c-1.328,3.037-2.214,5.846-4.582,8.168
		l-1.198-1.195l-1.99,2.191l-0.396-0.398l-1.197,0.398c-0.413-0.354-0.878-0.487-1.396-0.398l-2.392,1.794l-7.172-5.979
		c-1.159,1.361-2.355,2.69-3.588,3.986l3.388,2.789l-1.795,1.992l-1.194-0.797L563.679,329.253"/>
	<path id="maxvorstadt" fill="#D8D8D8" d="M439.539,289.403l-2.39,2.589c-1.379-0.561-2.71-1.226-3.987-1.991l-0.398,0.996
		c-2.001,0.79-3.768,2.094-5.181,3.786l-1.195-0.199l-2.19,1.793c-1.059-0.607-2.122-1.205-3.191-1.793v-0.6l-0.795-0.199v0.399
		c-4.347-1.089-8.644-2.355-12.951-3.587l-0.2,1.793l-10.759-1.194c1.395-4.125,5.103-5.8,7.771-8.967
		c-0.063-1.45,0.408-2.73,1.396-3.785c0.618,0.314,1.318,0.526,1.992,0.597c3.011-4.06,7.757-6.646,10.162-11.158
		c5.969,0.824,13.109,0.495,17.935,4.583c2.839-0.399,5.816-0.208,8.568,0.598l-0.2,3.787l2.988,0.596l0.4-0.996l0.993-0.598
		c0.709-0.188,1.512-0.479,2.193-0.795l-1.792,2.389c0.039,1.027-0.316,1.984-0.998,2.79l-0.396-0.199l-0.6,0.797
		c0.208,2.294-0.193,4.497-1.195,6.576l0.397,1.394c-0.494,0.605-0.894,1.27-1.196,1.992L439.539,289.403"/>
	<path id="altstadt-lehel" fill="#D8D8D8" d="M452.294,300.56l0.596,0.399l1.395-1.994c-0.035,0.464-0.102,0.937-0.196,1.395
		l-0.8,0.6v0.798l-2.589,2.989l-0.995-0.399c-0.55,1.592-1.349,3.055-2.392,4.383l-1-0.797v-0.397l-0.795-0.6v-0.795h-0.398v-0.399
		c-2.694-0.377-5.267-0.39-7.97-0.399l-0.199,0.2l-0.399-0.399l-0.6,0.399c0.003,0.699-0.124,1.334-0.396,1.993l-0.399,0.397v0.199
		l-0.4,0.598l0.201,0.199c-0.692,1.075-1.496,2.079-2.392,2.988h-1.194c-0.515-0.475-1.121-0.812-1.795-0.995v-0.399l-0.396-0.198
		l-0.799,0.198l-0.399-0.996l-0.398-0.199l-0.598-1.195c-3.301-2.407-2.732-7.047-2.59-10.761h0.2v-0.2l-0.398-0.197v-0.598
		l2.19-1.793l1.195,0.199c1.413-1.692,3.18-2.996,5.181-3.786l0.398-0.996c1.277,0.766,2.608,1.431,3.987,1.991l2.39-2.589
		l5.18,1.393c0.303-0.722,0.702-1.387,1.196-1.992l-0.397-1.394c1.002-2.079,1.403-4.282,1.195-6.576l0.6-0.797l0.396,0.199
		c0.682-0.806,1.037-1.763,0.998-2.79c0.659-1.234,1.616-2.273,2.789-2.988c0.434-0.812,0.701-1.677,0.798-2.59
		c-0.318-0.87-0.651-1.733-0.999-2.592h2.395c3.658,3.498,2.609,8.762,6.973,11.756C456.592,287.434,458.327,295.334,452.294,300.56
		"/>
	<path id="laim" fill="#D8D8D8" d="M379.96,305.143c-1.867,2.245-3.516,4.663-4.583,7.373c-3.446,2.139-6.889,4.279-10.36,6.377
		l-0.198,0.995c-3.386-0.373-6.825-0.175-9.963-1.395l-1.794,0.399l-0.399-1.196c-2.792-3.333-6.363-6.141-10.958-5.779
		c0-2.125,0-4.25,0-6.375l-0.399-0.2c0.45-1.262,0.798-2.654,0.997-3.984h0.2v-0.798h0.397v-0.398h0.2
		c1.447-3.69-0.252-7.188,1.395-10.759c-0.372-0.568-0.582-1.285-0.597-1.993l-0.398-0.4c0.214-0.441,0.28-0.906,0.197-1.395
		l0.399-0.597v-0.597c4.248,0.3,8.392,1.338,12.554,2.191l0.198-0.4l2.393,0.4v0.397c11.117,0.438,21.87,2.17,32.877,3.786v3.188
		c-0.991-0.555-2.056-0.752-3.188-0.596l-0.398,0.396c-1.325,0.244-2.545,0.783-3.586,1.595h-0.599
		c-1.004,1.799-1.215,3.826-0.598,5.78l-0.6,0.198L379.96,305.143"/>
	<path id="ludwigsvorstadt-isarvorstadt" fill="#D8D8D8" d="M406.063,304.547c0.723-1.867,1.273-3.941,1.596-5.981l-0.199-0.396
		c-0.42,0.062-0.818-0.004-1.196-0.199v-0.199l-0.397-0.6c1.062-1.984,1.523-4.245,1.395-6.574
		c4.308,1.231,8.604,2.498,12.951,3.587v-0.399l0.795,0.199v0.6c1.069,0.588,2.133,1.186,3.191,1.793v0.598l0.398,0.197v0.2h-0.2
		c-0.143,3.714-0.711,8.354,2.59,10.761l0.598,1.195l0.398,0.199l0.399,0.996l0.799-0.198l0.396,0.198v0.399
		c0.674,0.184,1.28,0.521,1.795,0.995h1.194c0.896-0.909,1.699-1.913,2.392-2.988l-0.201-0.199l0.4-0.598v-0.199l0.399-0.397
		c0.271-0.659,0.398-1.294,0.396-1.993l0.6-0.399l0.399,0.399l0.199-0.2c2.703,0.01,5.275,0.022,7.97,0.399v0.399h0.398v0.795
		l0.795,0.6v0.397c0.771,0.677,1.639,1.208,2.593,1.594c-1.315,3.25-3.354,6.323-7.173,5.578
		c-6.549,4.565-14.601,9.797-19.329,16.341c-5.947-5.401-13.102-8.887-19.13-13.949c0.119-2.238,0.69-4.229,1.793-6.176
		c-0.25-0.915-0.258-1.922,0-2.791l0.4-0.196C405.948,307.171,406.151,305.844,406.063,304.547"/>
	<path id="schwanthalerhoehe" fill="#D8D8D8" d="M397.098,313.911c-5.343-1.934-10.854-7.842-13.95-12.553l0.6-0.198
		c-0.617-1.954-0.406-3.981,0.598-5.78h0.599c1.041-0.812,2.261-1.351,3.586-1.595l0.398-0.396c1.132-0.156,2.196,0.041,3.188,0.596
		v-3.188c4.99,0.445,9.966,1.042,14.944,1.595c0.221,1.756-0.17,3.384-1.194,4.781l0.397,0.6v0.199
		c0.378,0.195,0.776,0.262,1.196,0.199l0.199,0.396c-0.793,3.322-1.496,6.539-2.191,9.768l-0.4,0.196
		c-0.258,0.869-0.25,1.876,0,2.791c-1.212,2.159-1.804,4.479-1.793,6.975h-0.598C401.025,316.689,399.088,315.168,397.098,313.911"
		/>
	<path id="au-haidhausen" fill="#D8D8D8" d="M466.04,320.485c-2.111,0.021-4.158,1.29-5.576,3.189l-0.199-0.397
		c-5.83,4.295-14.553,4.676-21.323,6.973c-3.122-1.925-6.263-3.82-9.365-5.776c4.018-3.163,7.96-6.442,12.156-9.368
		c3.818,0.745,5.857-2.328,7.173-5.578l-1.593-0.797c1.043-1.328,1.842-2.791,2.392-4.383l0.995,0.399l2.589-2.989v-0.798l0.8-0.6
		c0.095-0.458,0.161-0.931,0.196-1.395l-1.395,1.994l-0.596-0.399c2.127-1.842,4.137-4.277,4.383-7.172l1.396,0.396
		c-0.29,0.493-0.428,1.031-0.4,1.595l0.4,0.399c0.352-0.086,0.685-0.219,0.997-0.399l0.396-1.195
		c2.151,0.738,4.269,1.532,6.377,2.392l-0.399,1.99l0.797,1.199l0.598-0.2l0.599,0.795h0.597l0.199-0.994l1.396-0.599l0.396-0.797
		c4.745,0.624,9.488,1.383,14.149,2.39l-0.199,0.8l-1.992,0.396c0.314,2.01,0.577,3.979,0.797,5.979
		C474.498,306.308,471.164,315.364,466.04,320.485"/>
	<path id="bergamlaim" fill="#D8D8D8" d="M476.404,326.664c-2.24-0.528-4.663-0.595-6.975-0.198
		c-1.574-2.086-3.488-3.743-5.579-5.381h-0.199c0.619-0.81,1.455-1.012,2.39-0.6c5.124-5.121,8.458-14.177,16.739-12.949
		c0.087-1.238-0.113-2.438-0.597-3.588c4.71-1.918,11.668-3.997,16.14-0.796h1.993l1.991-1.596
		c5.462-0.119,10.882,0.659,16.34,0.797c1.88,4.094,2.406,8.693,4.581,12.555c-1.823,3.342-3.669,6.672-5.58,9.965l0.202,0.197
		l-2.193,4.184l-0.596-0.398l-3.189,6.576l-2.191,0.399c-4.121-3.424-12.403-6.739-17.735-7.176v-0.597
		c-3.297-0.558-6.473-0.499-9.762-0.998v-0.197l-5.182-0.397v0.198H476.404"/>
	<path id="westpark" fill="#D8D8D8" d="M393.71,332.641c0,4.251,0,8.502,0,12.753l-0.399,0.2l0.201,0.599h0.396v1.395h-0.598
		l-0.198,3.188h-0.2v0.996h-1.195c-0.326,0.353-0.459,0.751-0.399,1.194l-2.788,0.597l-0.599,0.999l-2.391,0.396l-0.398-0.996
		c-3.186,0.362-6.405,0.528-9.565,0.996l-1.194-0.396l-0.398-1.793c-2.09,1.386-4.216,2.714-6.378,3.984l-2.19-0.796l-0.2,0.796
		h-0.996l-0.398,2.191l-2.989,0.599c-0.762-0.851-1.625-1.581-2.59-2.191l-0.399-0.997l-0.997-0.397
		c2.45-6.727,0.546-15.25,0.401-22.319l0.596,0.198c0.069-4.816-0.175-9.796,0.399-14.545l6.577,0.598l0.198-0.995
		c3.471-2.098,6.915-4.238,10.36-6.377c1.646-4.177,4.788-7.837,7.771-11.158c3.312,5.039,8.763,8.288,11.858,13.45
		C397.639,319.2,394.402,328.032,393.71,332.641"/>
	<path id="hadern" fill="#D8D8D8" d="M317.393,336.029c0.965-1.588,1.451-3.354,1.394-5.18l-0.796-0.2
		c-0.398-5.314,0.138-10.691-0.398-15.939c1.336,0.32,2.6,0.116,3.785-0.6l0.201,0.398h0.199v-0.598h1.196v-0.398l3.785-0.397
		l0.399,0.2l0.796-0.799l0.2,0.199l0.795-0.199v-0.399l2.791-0.796l0.797,1.994c7.245-3.636,15.205-1.491,20.125,4.382l0.399,1.196
		l1.794-0.399c1.041,0.656,2.172,0.925,3.387,0.797c-0.574,4.749-0.33,9.729-0.399,14.545l-0.596-0.198
		c0.145,7.069,2.048,15.593-0.401,22.319c-2.156,1.729-4.435,3.311-6.774,4.781l-0.597-0.6c-3.785,3.005-6.975,6.235-11.956,6.975
		l-0.799-1.792h-0.397l-0.199-2.191l-8.768,4.383c-0.692-2.075-1.729-4.142-2.987-5.979l4.183-7.771l-0.796-0.397v-0.798
		l-4.782-1.792v0.796H315.8c0.13-5.099,0.025-10.243,0.396-15.343L317.393,336.029"/>
	<path id="sendling" fill="#D8D8D8" d="M407.658,350.974l-0.996-0.199l-0.399,0.996c-0.842-0.319-1.696-0.451-2.591-0.398
		l-0.398-0.398c-1.362,1.15-2.575,2.5-3.587,3.983l-0.199,1.992l-0.597-3.388c-0.332,0-0.664,0-0.996,0l-0.199-0.395h-0.399v-0.399
		h-2.589l-0.199,1.395c-0.411-0.032-0.811,0.034-1.197,0.197c-0.259-1.178-0.394-2.383-0.398-3.585h0.2l0.198-3.188h0.598v-1.395
		h-0.396l-0.201-0.599l0.399-0.2c0-8.39,5.709-26.314-0.198-33.078c3.489,1.089,6.604,3.488,9.164,5.979h0.598v-0.799
		c6.028,5.062,13.183,8.548,19.13,13.949l-1.993,2.591c0.057,10.035,1.752,11.606-5.58,18.929c-0.995-0.934-2.066-1.805-3.188-2.59
		v-0.795l-0.398-0.401h-0.597c-0.213,1.061-0.413,2.124-0.599,3.189l-0.599,0.198v-0.399l-0.994-0.597v-0.597l-0.398-0.199
		L407.658,350.974"/>
	<path id="ramersdorf-perlach" fill="#D8D8D8" d="M472.816,368.706c-0.938,0.208-1.873,0.135-2.791-0.198
		c-8.669-7.706-20.134-39.292-6.374-47.423h0.199c2.091,1.638,4.005,3.295,5.579,5.381c2.489-0.427,5.152-0.304,7.572,0.198v-0.198
		l5.182,0.397v0.197c3.289,0.499,6.465,0.44,9.762,0.998v0.597c7.591,0.621,14.106,6.204,21.122,8.569l-0.399,0.997l2.192,1.99
		l-0.2,0.2l0.599,0.599l3.189,0.199v0.598h3.187c1.876,1.389,3.869,2.584,5.979,3.587l-0.199,1.197
		c2.006,2.315,4.308,4.356,6.773,6.177c-1.045,1.348-1.741,2.926-1.99,4.583c2.455,0.676,4.782,1.387,7.173,2.191l-0.201,0.596
		l0.201,0.199l0.598-0.595l5.381,1.989l-0.2,0.6l0.396,0.398l0.2-0.798l3.189,1.395l0.199-0.597
		c3.621,2.229,6.524,6.127,8.767,9.764c-8.686-3.174-7.062,8.555-7.97,14.147l2.591,2.991l0.598,3.585
		c0.464,0.878,0.912,2.002,1.194,2.99l-6.773-1.398v-0.396h-0.399v0.198l-5.58-0.799l-0.198,0.996
		c-11.8,1.223-27.545-4.838-38.457-8.766c-1.536-0.323-2.948-1.001-4.185-1.994l-0.199-1.394l-3.387-0.397v-0.4l-3.588-0.796
		l-0.198-0.398l-2.788-0.399l-0.201-1.195l-7.372-0.798c-1.232-2.799-2.176-5.74-2.591-8.765l0.2-0.2L472.816,368.706"/>
	<path id="obergiesing" fill="#D8D8D8" d="M442.529,353.762l0.996-0.397c-0.104-1.521-0.947-2.645-2.391-3.189
		c-0.337-1.378-0.802-2.704-1.396-3.982h-0.198c-0.099-0.694-0.298-1.359-0.598-1.994l-0.797-0.2
		c-0.68-0.807-1.034-1.763-0.995-2.789l-2.394-0.597l-0.199-0.401l0.4-0.595h0.599c0.394-2.021,1.325-3.765,2.788-5.18l0.598-4.188
		c6.771-2.297,15.493-2.678,21.323-6.973l0.199,0.397c-7.836,10.894,0.693,36.95,9.561,44.833c2.81,0.328,5.73,0.252,8.571,0.799
		l-0.2,0.2c0.415,3.024,1.358,5.966,2.591,8.765l-0.2,0.398h-1.196l0.2,0.799l-3.787-0.199l0.201,1.595
		c-1.642,0.26-3.466,0.328-5.182,0.198l-4.185,2.79l-1.395-3.39l-3.787,1c-0.214,0.427-0.485,0.836-0.795,1.193l-1.792,0.201
		l-0.401-0.599l-1.593,0.796l0.396,0.396l-1.793,0.799l-1.591-0.599c-0.768-4.173-2.553-8.15-3.988-12.153l-1.194,0.2l-0.6-0.598
		l-0.993,0.2l-0.8-0.8l2.989-1.795l-0.199-0.397h-0.397l-0.997-2.987l-0.398,0.198l-0.997-3.787l-0.598-0.396l-3.188,1.991
		c0.146-2.988,0.312-5.977,0.401-8.967h-0.401L442.529,353.762"/>
	<path id="untergiesing-harlaching" fill="#D8D8D8" d="M409.45,358.944c0.615-3.078,3.01-3.92,4.783-6.575l0.597,0.597
		c7.332-7.322,5.637-8.894,5.58-18.929c2.747-3.593,5.408-6.97,9.166-9.563c3.103,1.956,6.243,3.852,9.365,5.776l-0.598,4.188
		c-1.463,1.415-2.395,3.159-2.788,5.18h-0.599l-0.4,0.595l0.199,0.401l2.394,0.597c-0.039,1.026,0.315,1.982,0.995,2.789l0.797,0.2
		c0.3,0.635,0.499,1.3,0.598,1.994h0.198c0.595,1.278,1.06,2.604,1.396,3.982c1.443,0.545,2.286,1.668,2.391,3.189l-0.996,0.397
		l0.198,0.598h0.401c-0.089,2.99-0.255,5.979-0.401,8.967l3.188-1.991l0.598,0.396l0.997,3.787l0.398-0.198l0.997,2.987h0.397
		l0.199,0.397c-4.601,2.724-9.021,5.657-13.748,8.171c-0.135,0.48-0.26,0.916-0.398,1.395l-1.197-0.396
		c-3.713,1.967-7.444,3.86-10.958,6.175l-0.996,2.991l-2.393-0.6l-0.397-0.397l-5.776-1.197c-1.805,6.854-4.533,13.599-6.775,20.325
		l-0.997-0.199l-2.193,5.779l-1.194-0.398c0.656-2.538,0.435-5.276-0.798-7.571l0.2-0.798l-1.195-1.193v-0.797h-0.398
		c0.095-1.626,0.359-3.202,0.798-4.785h-0.997c-0.203-8.01,6.278-12.659,8.567-19.525
		C410.462,370.26,408.466,364.527,409.45,358.944"/>
	<path id="thalkirchen-obersendling-forstenried-fuerstenried-solln" fill="#D8D8D8" d="M333.932,393.017l-6.974-3.985
		l-0.599,0.995l-1.393-1.192l0.397-0.6l-1.196-1.194l2.791-6.177l1.196-0.2l1.594-2.99l-2.99-1.193v-0.2l-1.395-0.798
		c0.956-2.564,1.591-5.264,1.993-7.97l8.768-4.383l0.199,2.191h0.397l0.799,1.792c4.981-0.739,8.171-3.97,11.956-6.975l0.597,0.6
		c2.339-1.471,4.618-3.053,6.774-4.781l0.997,0.397l0.399,0.997c0.965,0.61,1.828,1.341,2.59,2.191l2.989-0.599l0.398-2.191h0.996
		l0.2-0.796l2.19,0.796c2.162-1.271,4.288-2.599,6.378-3.984l0.398,1.793l1.194,0.396c3.16-0.468,6.38-0.634,9.565-0.996
		l0.398,0.996l2.391-0.396l0.599-0.999l2.788-0.597c-0.06-0.443,0.073-0.842,0.399-1.194h1.195l0.398,2.589
		c0.387-0.163,0.786-0.229,1.197-0.197l0.199-1.395h2.589v0.399h0.399l0.199,0.395c0.332,0,0.664,0,0.996,0l0.597,3.388l0.199-1.992
		c1.012-1.483,2.225-2.833,3.587-3.983l0.398,0.398c0.895-0.053,1.749,0.079,2.591,0.398l0.399-0.996l0.996,0.199l0.399-0.199
		l0.398,0.199v0.597l0.994,0.597v0.399l0.599-0.198c0.186-1.065,0.386-2.129,0.599-3.189h0.597l0.398,0.401v0.795l2.591,1.993
		c-1.193,1.787-3.884,3.132-4.584,4.881c-1.764,4.404,0.574,9.753-0.199,14.248c-1.44,8.373-9.593,14.662-9.363,23.711
		c-3.301-0.514-6.79-0.763-9.964,0.4c-0.693,4.087-2.698,9.984-4.384,13.748h-1.992l-0.199,0.797l-1.992-0.201l-1.396,1.596
		l-0.199,1.594l-0.796-0.199l0.198-1.196l-3.188,0.2l0.199,0.797c-0.597,0.043-1.201,0.11-1.794,0.199v0.596l-0.797-0.196
		l-0.398,1.593l-1.594-0.199l-0.399,3.389l-3.586-1.596c-0.935,1.608-2.072,3.084-3.387,4.387l-5.18-1.396l-0.4-4.187l-0.995-0.795
		l-0.596-1.596l0.596-0.399l-0.199-2.39l0.796-0.996v-0.6c-5.41-3.369-10.75-6.888-16.337-9.963l-0.201,0.6l0.599,0.198
		l-0.797,2.394l-0.997-0.401l0.2-0.795l-0.798-0.4l1.196-2.389C338.82,396.256,336.38,394.625,333.932,393.017"/>
</g>

<text x="100" y="450" id="area-name"></text>
<script>
	<![CDATA[


           var all = document.getElementsByTagName("path");

                for (var i=0, max=all.length; i < max; i++) {
                    all[i].addEventListener("mouseover", function(e){
                        <!-- console.log(e.target.id); -->
                        document.getElementById("area-name").textContent = e.target.id;
                    });
                }
		]]>
</script>
</svg>
